ffmpeg version 7.0.1-full_build-www.gyan.dev Copyright (c) 2000-2024 the FFmpeg developers
  built with gcc 13.2.0 (Rev5, Built by MSYS2 project)
  configuration: --enable-gpl --enable-version3 --enable-static --disable-w32threads --disable-autodetect --enable-fontconfig --enable-iconv --enable-gnutls --enable-libxml2 --enable-gmp --enable-bzlib --enable-lzma --enable-libsnappy --enable-zlib --enable-librist --enable-libsrt --enable-libssh --enable-libzmq --enable-avisynth --enable-libbluray --enable-libcaca --enable-sdl2 --enable-libaribb24 --enable-libaribcaption --enable-libdav1d --enable-libdavs2 --enable-libuavs3d --enable-libxevd --enable-libzvbi --enable-librav1e --enable-libsvtav1 --enable-libwebp --enable-libx264 --enable-libx265 --enable-libxavs2 --enable-libxeve --enable-libxvid --enable-libaom --enable-libjxl --enable-libopenjpeg --enable-libvpx --enable-mediafoundation --enable-libass --enable-frei0r --enable-libfreetype --enable-libfribidi --enable-libharfbuzz --enable-liblensfun --enable-libvidstab --enable-libvmaf --enable-libzimg --enable-amf --enable-cuda-llvm --enable-cuvid --enable-dxva2 --enable-d3d11va --enable-d3d12va --enable-ffnvcodec --enable-libvpl --enable-nvdec --enable-nvenc --enable-vaapi --enable-libshaderc --enable-vulkan --enable-libplacebo --enable-opencl --enable-libcdio --enable-libgme --enable-libmodplug --enable-libopenmpt --enable-libopencore-amrwb --enable-libmp3lame --enable-libshine --enable-libtheora --enable-libtwolame --enable-libvo-amrwbenc --enable-libcodec2 --enable-libilbc --enable-libgsm --enable-libopencore-amrnb --enable-libopus --enable-libspeex --enable-libvorbis --enable-ladspa --enable-libbs2b --enable-libflite --enable-libmysofa --enable-librubberband --enable-libsoxr --enable-chromaprint
  libavutil      59.  8.100 / 59.  8.100
  libavcodec     61.  3.100 / 61.  3.100
  libavformat    61.  1.100 / 61.  1.100
  libavdevice    61.  1.100 / 61.  1.100
  libavfilter    10.  1.100 / 10.  1.100
  libswscale      8.  1.100 /  8.  1.100
  libswresample   5.  1.100 /  5.  1.100
  libpostproc    58.  1.100 / 58.  1.100
Input #0, mov,mp4,m4a,3gp,3g2,mj2, from 'C:\Users\shimp\Downloads\ほらっちチャンネル\中小企業診断士試験対策【企業経営理論】\03_20200901_企業経営理論 経営戦略①【経営理念と経営戦略】中小企業診断士試験対策.mp4':
  Metadata:
    major_brand     : mp42
    minor_version   : 0
    compatible_brands: isommp42
    creation_time   : 2020-08-31T12:03:55.000000Z
  Duration: 00:16:46.35, start: 0.000000, bitrate: 433 kb/s
  Stream #0:0[0x1](und): Video: h264 (Main) (avc1 / 0x31637661), yuv420p(tv, bt709, progressive), 640x360 [SAR 1:1 DAR 16:9], 301 kb/s, 29.97 fps, 29.97 tbr, 11988 tbn (default)
      Metadata:
        creation_time   : 2020-08-31T12:03:55.000000Z
        handler_name    : ISO Media file produced by Google Inc. Created on: 08/31/2020.
        vendor_id       : [0][0][0][0]
  Stream #0:1[0x2](eng): Audio: aac (LC) (mp4a / 0x6134706D), 44100 Hz, stereo, fltp, 128 kb/s (default)
      Metadata:
        creation_time   : 2020-08-31T12:03:55.000000Z
        handler_name    : ISO Media file produced by Google Inc. Created on: 08/31/2020.
        vendor_id       : [0][0][0][0]
Input #1, image2, from 'C:\Users\shimp\AppData\Local\Temp\tmpt1z6miwa.jpg':
  Duration: 00:00:00.04, start: 0.000000, bitrate: 12329 kb/s
  Stream #1:0: Video: mjpeg (Baseline), yuvj420p(pc, bt470bg/unknown/unknown), 640x480 [SAR 1:1 DAR 4:3], 25 fps, 25 tbr, 25 tbn
Stream mapping:
  Stream #0:1 -> #0:0 (aac (native) -> opus (libopus))
  Stream #1:0 -> #0:1 (copy)
Press [q] to stop, [?] for help
[libopus @ 0000023e5adba3c0] No bit rate set. Defaulting to 96000 bps.
[ipod @ 0000023e5cf21fc0] Could not find tag for codec opus in stream #0, codec not currently supported in container
[out#0/ipod @ 0000023e5cf22e80] Could not write header (incorrect codec parameters ?): Invalid argument
[af#0:0 @ 0000023e5adbaa40] Error sending frames to consumers: Invalid argument
[af#0:0 @ 0000023e5adbaa40] Task finished with error code: -22 (Invalid argument)
[af#0:0 @ 0000023e5adbaa40] Terminating thread with return code -22 (Invalid argument)
[out#0/ipod @ 0000023e5cf22e80] Nothing was written into output file, because at least one of its streams received no packets.
size=       0KiB time=N/A bitrate=N/A speed=N/A    
Conversion failed!
